<mxfile host="app.diagrams.net" modified="2023-07-30T07:44:26.916Z" agent="Mozilla/5.0 (Windows NT 10.0; Win64; x64; rv:109.0) Gecko/20100101 Firefox/115.0" version="21.3.8" etag="io7UvvE0X5BNb8DqU-Nh" type="github">
  <diagram name="第 1 页" id="JvnWdVgthKfiC-_RACWI">
    <mxGraphModel>
      <root>
        <mxCell id="0" />
        <mxCell id="1" parent="0" />
      </root>
    </mxGraphModel>
  </diagram>
</mxfile>
